{
	"patcher" : 	{
		"fileversion" : 1,
		"appversion" : 		{
			"major" : 5,
			"minor" : 1,
			"revision" : 9
		}
,
		"rect" : [ 445.0, 44.0, 807.0, 739.0 ],
		"bglocked" : 0,
		"defrect" : [ 445.0, 44.0, 807.0, 739.0 ],
		"openrect" : [ 0.0, 0.0, 0.0, 0.0 ],
		"openinpresentation" : 0,
		"default_fontsize" : 11.595187,
		"default_fontface" : 0,
		"default_fontname" : "Arial",
		"gridonopen" : 0,
		"gridsize" : [ 15.0, 15.0 ],
		"gridsnaponopen" : 0,
		"toolbarvisible" : 1,
		"boxanimatetime" : 200,
		"imprint" : 0,
		"enablehscroll" : 1,
		"enablevscroll" : 1,
		"devicewidth" : 0.0,
		"boxes" : [ 			{
				"box" : 				{
					"maxclass" : "comment",
					"text" : "loop on/off",
					"id" : "obj-20",
					"fontname" : "Arial",
					"patching_rect" : [ 34.0, 299.0, 72.0, 20.0 ],
					"fontsize" : 11.595187,
					"numinlets" : 1,
					"numoutlets" : 0
				}

			}
, 			{
				"box" : 				{
					"maxclass" : "comment",
					"text" : "magnitude threshold",
					"linecount" : 2,
					"id" : "obj-28",
					"fontname" : "Arial",
					"patching_rect" : [ 352.0, 220.0, 66.0, 33.0 ],
					"fontsize" : 11.595187,
					"numinlets" : 1,
					"numoutlets" : 0
				}

			}
, 			{
				"box" : 				{
					"maxclass" : "comment",
					"text" : "stretch factor",
					"linecount" : 2,
					"id" : "obj-27",
					"fontname" : "Arial",
					"patching_rect" : [ 299.0, 220.0, 47.0, 33.0 ],
					"fontsize" : 11.595187,
					"numinlets" : 1,
					"numoutlets" : 0
				}

			}
, 			{
				"box" : 				{
					"maxclass" : "comment",
					"text" : "frame to frame interpolation",
					"id" : "obj-26",
					"fontname" : "Arial",
					"patching_rect" : [ 472.0, 326.0, 185.0, 20.0 ],
					"fontsize" : 11.595187,
					"numinlets" : 1,
					"numoutlets" : 0
				}

			}
, 			{
				"box" : 				{
					"maxclass" : "comment",
					"text" : "start/stop playback",
					"linecount" : 2,
					"id" : "obj-25",
					"fontname" : "Arial",
					"patching_rect" : [ 32.0, 247.0, 65.0, 33.0 ],
					"fontsize" : 11.595187,
					"numinlets" : 1,
					"numoutlets" : 0
				}

			}
, 			{
				"box" : 				{
					"maxclass" : "comment",
					"text" : "jump to beginning",
					"linecount" : 2,
					"id" : "obj-24",
					"fontname" : "Arial",
					"patching_rect" : [ 168.0, 220.0, 65.0, 33.0 ],
					"fontsize" : 11.595187,
					"numinlets" : 1,
					"numoutlets" : 0
				}

			}
, 			{
				"box" : 				{
					"maxclass" : "comment",
					"text" : "audio processing on/off",
					"linecount" : 3,
					"id" : "obj-19",
					"fontname" : "Arial",
					"patching_rect" : [ 30.0, 355.0, 70.0, 46.0 ],
					"fontsize" : 11.595187,
					"numinlets" : 1,
					"numoutlets" : 0
				}

			}
, 			{
				"box" : 				{
					"maxclass" : "comment",
					"text" : "output is always stereo",
					"id" : "obj-2",
					"fontname" : "Arial",
					"patching_rect" : [ 39.0, 459.0, 150.0, 20.0 ],
					"fontsize" : 11.595187,
					"numinlets" : 1,
					"numoutlets" : 0
				}

			}
, 			{
				"box" : 				{
					"maxclass" : "comment",
					"text" : "FFT size must be power of 2.\nchoose larger sizes for better sound.",
					"linecount" : 3,
					"id" : "obj-16",
					"fontname" : "Arial",
					"patching_rect" : [ 479.0, 425.0, 168.0, 46.0 ],
					"fontsize" : 11.595187,
					"numinlets" : 1,
					"numoutlets" : 0
				}

			}
, 			{
				"box" : 				{
					"maxclass" : "comment",
					"text" : "in ms",
					"id" : "obj-11",
					"fontname" : "Arial",
					"patching_rect" : [ 244.0, 230.0, 41.0, 20.0 ],
					"fontsize" : 11.595187,
					"numinlets" : 1,
					"numoutlets" : 0
				}

			}
, 			{
				"box" : 				{
					"maxclass" : "comment",
					"text" : "change buffer",
					"id" : "obj-9",
					"fontname" : "Arial",
					"patching_rect" : [ 369.0, 372.0, 103.0, 20.0 ],
					"fontsize" : 11.595187,
					"numinlets" : 1,
					"numoutlets" : 0
				}

			}
, 			{
				"box" : 				{
					"maxclass" : "comment",
					"text" : "0 -- 1",
					"id" : "obj-7",
					"fontname" : "Arial",
					"patching_rect" : [ 471.0, 304.0, 40.0, 20.0 ],
					"fontsize" : 11.595187,
					"numinlets" : 1,
					"numoutlets" : 0
				}

			}
, 			{
				"box" : 				{
					"maxclass" : "message",
					"text" : "set poo",
					"id" : "obj-94",
					"fontname" : "Arial",
					"patching_rect" : [ 409.0, 389.0, 49.0, 18.0 ],
					"fontsize" : 11.595187,
					"numinlets" : 2,
					"numoutlets" : 1,
					"outlettype" : [ "" ]
				}

			}
, 			{
				"box" : 				{
					"maxclass" : "message",
					"text" : "set foo",
					"id" : "obj-93",
					"fontname" : "Arial",
					"patching_rect" : [ 362.0, 389.0, 45.0, 18.0 ],
					"fontsize" : 11.595187,
					"numinlets" : 2,
					"numoutlets" : 1,
					"outlettype" : [ "" ]
				}

			}
, 			{
				"box" : 				{
					"maxclass" : "newobj",
					"text" : "buffer~ poo cherokee.aif",
					"id" : "obj-91",
					"fontname" : "Arial",
					"patching_rect" : [ 135.0, 160.0, 136.0, 20.0 ],
					"fontsize" : 11.595187,
					"numinlets" : 1,
					"numoutlets" : 2,
					"outlettype" : [ "float", "bang" ]
				}

			}
, 			{
				"box" : 				{
					"maxclass" : "newobj",
					"text" : "loadmess 125",
					"id" : "obj-83",
					"fontname" : "Arial",
					"patching_rect" : [ 264.0, 601.0, 83.0, 20.0 ],
					"fontsize" : 11.595187,
					"numinlets" : 1,
					"numoutlets" : 1,
					"hidden" : 1,
					"outlettype" : [ "" ]
				}

			}
, 			{
				"box" : 				{
					"maxclass" : "newobj",
					"text" : "loadmess 1",
					"id" : "obj-82",
					"fontname" : "Arial",
					"patching_rect" : [ 601.0, 133.0, 70.0, 20.0 ],
					"fontsize" : 11.595187,
					"numinlets" : 1,
					"numoutlets" : 1,
					"hidden" : 1,
					"outlettype" : [ "" ]
				}

			}
, 			{
				"box" : 				{
					"maxclass" : "flonum",
					"id" : "obj-81",
					"fontname" : "Arial",
					"patching_rect" : [ 600.0, 232.0, 60.0, 23.0 ],
					"fontsize" : 14.0,
					"numinlets" : 1,
					"numoutlets" : 2,
					"outlettype" : [ "float", "bang" ]
				}

			}
, 			{
				"box" : 				{
					"maxclass" : "newobj",
					"text" : "adstatus cpu",
					"id" : "obj-79",
					"fontname" : "Arial",
					"patching_rect" : [ 600.0, 208.0, 76.0, 20.0 ],
					"fontsize" : 11.595187,
					"numinlets" : 2,
					"numoutlets" : 2,
					"outlettype" : [ "", "int" ]
				}

			}
, 			{
				"box" : 				{
					"maxclass" : "toggle",
					"id" : "obj-78",
					"patching_rect" : [ 601.0, 159.0, 20.0, 20.0 ],
					"numinlets" : 1,
					"numoutlets" : 1,
					"outlettype" : [ "int" ]
				}

			}
, 			{
				"box" : 				{
					"maxclass" : "newobj",
					"text" : "metro 50",
					"id" : "obj-75",
					"fontname" : "Arial",
					"patching_rect" : [ 600.0, 183.0, 56.0, 20.0 ],
					"fontsize" : 11.595187,
					"numinlets" : 2,
					"numoutlets" : 1,
					"outlettype" : [ "bang" ]
				}

			}
, 			{
				"box" : 				{
					"maxclass" : "number",
					"id" : "obj-69",
					"fontname" : "Arial",
					"patching_rect" : [ 230.0, 683.0, 42.0, 20.0 ],
					"fontsize" : 11.595187,
					"numinlets" : 1,
					"numoutlets" : 2,
					"outlettype" : [ "int", "bang" ]
				}

			}
, 			{
				"box" : 				{
					"maxclass" : "newobj",
					"text" : "p more_parameters",
					"id" : "obj-18",
					"fontname" : "Arial",
					"patching_rect" : [ 527.0, 374.0, 116.0, 20.0 ],
					"fontsize" : 11.595187,
					"numinlets" : 0,
					"numoutlets" : 1,
					"outlettype" : [ "" ],
					"patcher" : 					{
						"fileversion" : 1,
						"appversion" : 						{
							"major" : 5,
							"minor" : 1,
							"revision" : 9
						}
,
						"rect" : [ 40.0, 116.0, 674.0, 423.0 ],
						"bglocked" : 0,
						"defrect" : [ 40.0, 116.0, 674.0, 423.0 ],
						"openrect" : [ 0.0, 0.0, 0.0, 0.0 ],
						"openinpresentation" : 0,
						"default_fontsize" : 10.0,
						"default_fontface" : 0,
						"default_fontname" : "Verdana",
						"gridonopen" : 0,
						"gridsize" : [ 5.0, 5.0 ],
						"gridsnaponopen" : 0,
						"toolbarvisible" : 1,
						"boxanimatetime" : 200,
						"imprint" : 0,
						"enablehscroll" : 1,
						"enablevscroll" : 1,
						"devicewidth" : 0.0,
						"boxes" : [ 							{
								"box" : 								{
									"maxclass" : "comment",
									"text" : "maximum number of shift/gain pairs is 12",
									"linecount" : 2,
									"id" : "obj-18",
									"fontname" : "Verdana",
									"patching_rect" : [ 489.0, 221.0, 150.0, 31.0 ],
									"fontsize" : 10.0,
									"numinlets" : 1,
									"numoutlets" : 0
								}

							}
, 							{
								"box" : 								{
									"maxclass" : "comment",
									"text" : "switch layering on/off",
									"linecount" : 2,
									"id" : "obj-16",
									"fontname" : "Verdana",
									"patching_rect" : [ 221.0, 165.0, 87.0, 31.0 ],
									"fontsize" : 10.0,
									"numinlets" : 1,
									"numoutlets" : 0
								}

							}
, 							{
								"box" : 								{
									"maxclass" : "comment",
									"text" : "pitchshift in cents",
									"id" : "obj-15",
									"fontname" : "Verdana",
									"patching_rect" : [ 26.0, 138.0, 150.0, 19.0 ],
									"fontsize" : 10.0,
									"numinlets" : 1,
									"numoutlets" : 0
								}

							}
, 							{
								"box" : 								{
									"maxclass" : "message",
									"text" : "0.28 0.23 0.19 0.17 0.12 0.1",
									"id" : "obj-13",
									"fontname" : "Verdana",
									"patching_rect" : [ 439.0, 47.0, 159.0, 17.0 ],
									"fontsize" : 10.0,
									"numinlets" : 2,
									"numoutlets" : 1,
									"hidden" : 1,
									"outlettype" : [ "" ]
								}

							}
, 							{
								"box" : 								{
									"maxclass" : "newobj",
									"text" : "loadbang",
									"id" : "obj-11",
									"fontname" : "Verdana",
									"patching_rect" : [ 439.0, 20.0, 56.0, 19.0 ],
									"fontsize" : 10.0,
									"numinlets" : 1,
									"numoutlets" : 1,
									"hidden" : 1,
									"outlettype" : [ "bang" ]
								}

							}
, 							{
								"box" : 								{
									"maxclass" : "newobj",
									"text" : "t b l",
									"id" : "obj-2",
									"fontname" : "Verdana",
									"patching_rect" : [ 390.0, 188.0, 32.5, 19.0 ],
									"fontsize" : 10.0,
									"numinlets" : 1,
									"numoutlets" : 2,
									"outlettype" : [ "bang", "" ]
								}

							}
, 							{
								"box" : 								{
									"maxclass" : "message",
									"text" : "-24 -12 0 12 24 36",
									"id" : "obj-8",
									"fontname" : "Verdana",
									"patching_rect" : [ 317.0, 44.0, 107.0, 17.0 ],
									"fontsize" : 10.0,
									"numinlets" : 2,
									"numoutlets" : 1,
									"outlettype" : [ "" ]
								}

							}
, 							{
								"box" : 								{
									"maxclass" : "message",
									"text" : "layers $1",
									"id" : "obj-12",
									"fontname" : "Verdana",
									"patching_rect" : [ 275.0, 215.0, 57.0, 17.0 ],
									"fontsize" : 10.0,
									"numinlets" : 2,
									"numoutlets" : 1,
									"outlettype" : [ "" ]
								}

							}
, 							{
								"box" : 								{
									"maxclass" : "newobj",
									"text" : "prepend set_layers",
									"id" : "obj-4",
									"fontname" : "Verdana",
									"patching_rect" : [ 340.0, 239.0, 107.0, 19.0 ],
									"fontsize" : 10.0,
									"numinlets" : 1,
									"numoutlets" : 1,
									"outlettype" : [ "" ]
								}

							}
, 							{
								"box" : 								{
									"maxclass" : "comment",
									"text" : "gains",
									"id" : "obj-10",
									"fontname" : "Verdana",
									"patching_rect" : [ 473.0, 69.0, 62.0, 19.0 ],
									"fontsize" : 10.0,
									"numinlets" : 1,
									"numoutlets" : 0
								}

							}
, 							{
								"box" : 								{
									"maxclass" : "comment",
									"text" : "pitchshifts",
									"id" : "obj-9",
									"fontname" : "Verdana",
									"patching_rect" : [ 344.0, 68.0, 79.0, 19.0 ],
									"fontsize" : 10.0,
									"numinlets" : 1,
									"numoutlets" : 0
								}

							}
, 							{
								"box" : 								{
									"maxclass" : "multislider",
									"id" : "obj-7",
									"signed" : 1,
									"setminmax" : [ -36.0, 36.0 ],
									"patching_rect" : [ 317.0, 88.0, 116.0, 89.0 ],
									"size" : 6,
									"contdata" : 1,
									"numinlets" : 1,
									"ghostbar" : 23,
									"spacing" : 1,
									"numoutlets" : 2,
									"outlettype" : [ "", "" ]
								}

							}
, 							{
								"box" : 								{
									"maxclass" : "multislider",
									"id" : "obj-6",
									"setminmax" : [ 0.0, 1.0 ],
									"patching_rect" : [ 439.0, 88.0, 116.0, 89.0 ],
									"size" : 6,
									"contdata" : 1,
									"numinlets" : 1,
									"ghostbar" : 23,
									"spacing" : 1,
									"numoutlets" : 2,
									"outlettype" : [ "", "" ]
								}

							}
, 							{
								"box" : 								{
									"maxclass" : "toggle",
									"id" : "obj-5",
									"patching_rect" : [ 275.0, 182.0, 20.0, 20.0 ],
									"numinlets" : 1,
									"numoutlets" : 1,
									"outlettype" : [ "int" ]
								}

							}
, 							{
								"box" : 								{
									"maxclass" : "newobj",
									"text" : "zl lace",
									"id" : "obj-3",
									"fontname" : "Verdana",
									"patching_rect" : [ 340.0, 213.0, 83.0, 19.0 ],
									"fontsize" : 10.0,
									"numinlets" : 2,
									"numoutlets" : 2,
									"outlettype" : [ "", "" ]
								}

							}
, 							{
								"box" : 								{
									"maxclass" : "number",
									"id" : "obj-65",
									"fontname" : "Arial",
									"patching_rect" : [ 39.0, 161.0, 59.0, 20.0 ],
									"fontsize" : 11.595187,
									"numinlets" : 1,
									"numoutlets" : 2,
									"outlettype" : [ "int", "bang" ]
								}

							}
, 							{
								"box" : 								{
									"maxclass" : "message",
									"text" : "pitchshift $1",
									"id" : "obj-57",
									"fontname" : "Arial",
									"patching_rect" : [ 39.0, 190.0, 72.0, 18.0 ],
									"fontsize" : 11.595187,
									"numinlets" : 2,
									"numoutlets" : 1,
									"outlettype" : [ "" ]
								}

							}
, 							{
								"box" : 								{
									"maxclass" : "outlet",
									"id" : "obj-1",
									"patching_rect" : [ 39.0, 320.0, 25.0, 25.0 ],
									"numinlets" : 1,
									"numoutlets" : 0,
									"comment" : ""
								}

							}
 ],
						"lines" : [ 							{
								"patchline" : 								{
									"source" : [ "obj-11", 0 ],
									"destination" : [ "obj-13", 0 ],
									"hidden" : 1,
									"midpoints" : [  ]
								}

							}
, 							{
								"patchline" : 								{
									"source" : [ "obj-13", 0 ],
									"destination" : [ "obj-6", 0 ],
									"hidden" : 1,
									"midpoints" : [  ]
								}

							}
, 							{
								"patchline" : 								{
									"source" : [ "obj-11", 0 ],
									"destination" : [ "obj-8", 0 ],
									"hidden" : 1,
									"midpoints" : [  ]
								}

							}
, 							{
								"patchline" : 								{
									"source" : [ "obj-57", 0 ],
									"destination" : [ "obj-1", 0 ],
									"hidden" : 0,
									"midpoints" : [  ]
								}

							}
, 							{
								"patchline" : 								{
									"source" : [ "obj-65", 0 ],
									"destination" : [ "obj-57", 0 ],
									"hidden" : 0,
									"midpoints" : [  ]
								}

							}
, 							{
								"patchline" : 								{
									"source" : [ "obj-7", 0 ],
									"destination" : [ "obj-3", 0 ],
									"hidden" : 0,
									"midpoints" : [  ]
								}

							}
, 							{
								"patchline" : 								{
									"source" : [ "obj-5", 0 ],
									"destination" : [ "obj-12", 0 ],
									"hidden" : 0,
									"midpoints" : [  ]
								}

							}
, 							{
								"patchline" : 								{
									"source" : [ "obj-12", 0 ],
									"destination" : [ "obj-1", 0 ],
									"hidden" : 0,
									"midpoints" : [  ]
								}

							}
, 							{
								"patchline" : 								{
									"source" : [ "obj-4", 0 ],
									"destination" : [ "obj-1", 0 ],
									"hidden" : 0,
									"midpoints" : [  ]
								}

							}
, 							{
								"patchline" : 								{
									"source" : [ "obj-3", 0 ],
									"destination" : [ "obj-4", 0 ],
									"hidden" : 0,
									"midpoints" : [  ]
								}

							}
, 							{
								"patchline" : 								{
									"source" : [ "obj-8", 0 ],
									"destination" : [ "obj-7", 0 ],
									"hidden" : 0,
									"midpoints" : [  ]
								}

							}
, 							{
								"patchline" : 								{
									"source" : [ "obj-6", 0 ],
									"destination" : [ "obj-2", 0 ],
									"hidden" : 0,
									"midpoints" : [  ]
								}

							}
, 							{
								"patchline" : 								{
									"source" : [ "obj-2", 1 ],
									"destination" : [ "obj-3", 1 ],
									"hidden" : 0,
									"midpoints" : [  ]
								}

							}
, 							{
								"patchline" : 								{
									"source" : [ "obj-2", 0 ],
									"destination" : [ "obj-3", 0 ],
									"hidden" : 0,
									"midpoints" : [  ]
								}

							}
 ]
					}
,
					"saved_object_attributes" : 					{
						"fontname" : "Verdana",
						"default_fontsize" : 10.0,
						"globalpatchername" : "",
						"fontface" : 0,
						"fontsize" : 10.0,
						"default_fontface" : 0,
						"default_fontname" : "Verdana"
					}

				}

			}
, 			{
				"box" : 				{
					"maxclass" : "message",
					"text" : "line $1",
					"id" : "obj-67",
					"fontname" : "Arial",
					"patching_rect" : [ 357.0, 515.0, 45.0, 18.0 ],
					"fontsize" : 11.595187,
					"numinlets" : 2,
					"numoutlets" : 1,
					"outlettype" : [ "" ]
				}

			}
, 			{
				"box" : 				{
					"maxclass" : "comment",
					"text" : "position in ms",
					"id" : "obj-61",
					"fontname" : "Arial",
					"patching_rect" : [ 379.0, 473.0, 100.0, 20.0 ],
					"fontsize" : 11.595187,
					"numinlets" : 1,
					"numoutlets" : 0
				}

			}
, 			{
				"box" : 				{
					"maxclass" : "comment",
					"text" : "args: buffer name, FFT size",
					"id" : "obj-55",
					"fontname" : "Arial",
					"patching_rect" : [ 312.0, 425.0, 163.0, 20.0 ],
					"fontsize" : 11.595187,
					"numinlets" : 1,
					"numoutlets" : 0
				}

			}
, 			{
				"box" : 				{
					"maxclass" : "comment",
					"text" : "an object for extreme time stretching. loosely based on nasca octavian paul's 'paulstretch'",
					"frgb" : [ 0.909804, 0.909804, 0.909804, 1.0 ],
					"id" : "obj-41",
					"fontname" : "Helvetica",
					"patching_rect" : [ 16.0, 77.0, 534.0, 19.0 ],
					"fontsize" : 13.0,
					"numinlets" : 1,
					"textcolor" : [ 0.909804, 0.909804, 0.909804, 1.0 ],
					"numoutlets" : 0
				}

			}
, 			{
				"box" : 				{
					"maxclass" : "comment",
					"text" : "vb.stretch~",
					"id" : "obj-17",
					"fontname" : "Helvetica",
					"patching_rect" : [ 262.0, 31.0, 186.0, 36.0 ],
					"fontface" : 3,
					"fontsize" : 30.0,
					"numinlets" : 1,
					"numoutlets" : 0
				}

			}
, 			{
				"box" : 				{
					"maxclass" : "flonum",
					"id" : "obj-47",
					"fontname" : "Arial",
					"patching_rect" : [ 236.0, 250.0, 58.0, 20.0 ],
					"fontsize" : 11.595187,
					"numinlets" : 1,
					"numoutlets" : 2,
					"outlettype" : [ "float", "bang" ]
				}

			}
, 			{
				"box" : 				{
					"maxclass" : "toggle",
					"id" : "obj-70",
					"patching_rect" : [ 417.0, 250.0, 20.0, 20.0 ],
					"numinlets" : 1,
					"numoutlets" : 1,
					"outlettype" : [ "int" ]
				}

			}
, 			{
				"box" : 				{
					"maxclass" : "message",
					"text" : "freeze $1",
					"id" : "obj-68",
					"fontname" : "Arial",
					"patching_rect" : [ 417.0, 273.0, 59.0, 18.0 ],
					"fontsize" : 11.595187,
					"numinlets" : 2,
					"numoutlets" : 1,
					"outlettype" : [ "" ]
				}

			}
, 			{
				"box" : 				{
					"maxclass" : "newobj",
					"text" : "loadmess 16",
					"id" : "obj-49",
					"fontname" : "Arial",
					"patching_rect" : [ 295.0, 183.0, 77.0, 20.0 ],
					"fontsize" : 11.595187,
					"numinlets" : 1,
					"numoutlets" : 1,
					"hidden" : 1,
					"outlettype" : [ "" ]
				}

			}
, 			{
				"box" : 				{
					"maxclass" : "flonum",
					"id" : "obj-8",
					"fontname" : "Arial",
					"patching_rect" : [ 295.0, 250.0, 49.0, 20.0 ],
					"fontsize" : 11.595187,
					"numinlets" : 1,
					"numoutlets" : 2,
					"outlettype" : [ "float", "bang" ]
				}

			}
, 			{
				"box" : 				{
					"maxclass" : "message",
					"text" : "stretch $1",
					"id" : "obj-56",
					"fontname" : "Arial",
					"patching_rect" : [ 295.0, 273.0, 61.0, 18.0 ],
					"fontsize" : 11.595187,
					"numinlets" : 2,
					"numoutlets" : 1,
					"outlettype" : [ "" ]
				}

			}
, 			{
				"box" : 				{
					"maxclass" : "comment",
					"text" : "it's is on by default",
					"id" : "obj-43",
					"fontname" : "Arial",
					"patching_rect" : [ 30.0, 401.0, 121.0, 20.0 ],
					"fontsize" : 11.595187,
					"numinlets" : 1,
					"numoutlets" : 0
				}

			}
, 			{
				"box" : 				{
					"maxclass" : "toggle",
					"id" : "obj-23",
					"patching_rect" : [ 103.0, 355.0, 20.0, 20.0 ],
					"numinlets" : 1,
					"numoutlets" : 1,
					"outlettype" : [ "int" ]
				}

			}
, 			{
				"box" : 				{
					"maxclass" : "message",
					"text" : "proc $1",
					"id" : "obj-31",
					"fontname" : "Arial",
					"patching_rect" : [ 103.0, 379.0, 49.0, 18.0 ],
					"fontsize" : 11.595187,
					"numinlets" : 2,
					"numoutlets" : 1,
					"outlettype" : [ "" ]
				}

			}
, 			{
				"box" : 				{
					"maxclass" : "flonum",
					"id" : "obj-3",
					"fontname" : "Arial",
					"patching_rect" : [ 418.0, 303.0, 53.0, 20.0 ],
					"fontsize" : 11.595187,
					"numinlets" : 1,
					"numoutlets" : 2,
					"outlettype" : [ "float", "bang" ]
				}

			}
, 			{
				"box" : 				{
					"maxclass" : "message",
					"text" : "slide $1",
					"id" : "obj-46",
					"fontname" : "Arial",
					"patching_rect" : [ 418.0, 326.0, 55.0, 18.0 ],
					"fontsize" : 11.595187,
					"numinlets" : 2,
					"numoutlets" : 1,
					"outlettype" : [ "" ]
				}

			}
, 			{
				"box" : 				{
					"maxclass" : "message",
					"text" : "seek $1",
					"id" : "obj-32",
					"fontname" : "Arial",
					"patching_rect" : [ 236.0, 273.0, 51.0, 18.0 ],
					"fontsize" : 11.595187,
					"numinlets" : 2,
					"numoutlets" : 1,
					"outlettype" : [ "" ]
				}

			}
, 			{
				"box" : 				{
					"maxclass" : "message",
					"text" : "1",
					"id" : "obj-51",
					"fontname" : "Arial",
					"patching_rect" : [ 103.0, 236.0, 22.5, 18.0 ],
					"fontsize" : 11.595187,
					"numinlets" : 2,
					"numoutlets" : 1,
					"outlettype" : [ "" ]
				}

			}
, 			{
				"box" : 				{
					"maxclass" : "led",
					"id" : "obj-42",
					"patching_rect" : [ 159.0, 684.0, 23.0, 23.0 ],
					"numinlets" : 1,
					"bgcolor" : [ 0.35294, 0.35294, 0.35294, 1.0 ],
					"numoutlets" : 1,
					"outlettype" : [ "int" ]
				}

			}
, 			{
				"box" : 				{
					"maxclass" : "newobj",
					"text" : "p key",
					"id" : "obj-45",
					"fontname" : "Arial",
					"patching_rect" : [ 156.0, 665.0, 33.0, 17.0 ],
					"fontsize" : 9.0,
					"numinlets" : 1,
					"numoutlets" : 1,
					"hidden" : 1,
					"outlettype" : [ "int" ],
					"patcher" : 					{
						"fileversion" : 1,
						"appversion" : 						{
							"major" : 5,
							"minor" : 1,
							"revision" : 9
						}
,
						"rect" : [ 20.0, 74.0, 400.0, 326.0 ],
						"bglocked" : 0,
						"defrect" : [ 20.0, 74.0, 400.0, 326.0 ],
						"openrect" : [ 0.0, 0.0, 0.0, 0.0 ],
						"openinpresentation" : 0,
						"default_fontsize" : 10.0,
						"default_fontface" : 0,
						"default_fontname" : "Verdana",
						"gridonopen" : 0,
						"gridsize" : [ 5.0, 5.0 ],
						"gridsnaponopen" : 0,
						"toolbarvisible" : 1,
						"boxanimatetime" : 200,
						"imprint" : 0,
						"enablehscroll" : 1,
						"enablevscroll" : 1,
						"devicewidth" : 0.0,
						"boxes" : [ 							{
								"box" : 								{
									"maxclass" : "message",
									"text" : "set $1",
									"id" : "obj-1",
									"fontname" : "Verdana",
									"patching_rect" : [ 140.0, 99.0, 39.0, 15.0 ],
									"fontsize" : 9.0,
									"numinlets" : 2,
									"numoutlets" : 1,
									"outlettype" : [ "" ]
								}

							}
, 							{
								"box" : 								{
									"maxclass" : "inlet",
									"id" : "obj-2",
									"patching_rect" : [ 140.0, 76.0, 15.0, 15.0 ],
									"numinlets" : 0,
									"numoutlets" : 1,
									"outlettype" : [ "int" ],
									"comment" : ""
								}

							}
, 							{
								"box" : 								{
									"maxclass" : "toggle",
									"id" : "obj-3",
									"patching_rect" : [ 52.0, 107.0, 15.0, 15.0 ],
									"numinlets" : 1,
									"numoutlets" : 1,
									"outlettype" : [ "int" ]
								}

							}
, 							{
								"box" : 								{
									"maxclass" : "outlet",
									"id" : "obj-4",
									"patching_rect" : [ 52.0, 189.0, 15.0, 15.0 ],
									"numinlets" : 1,
									"numoutlets" : 0,
									"comment" : ""
								}

							}
, 							{
								"box" : 								{
									"maxclass" : "newobj",
									"text" : "sel 27",
									"linecount" : 2,
									"id" : "obj-5",
									"fontname" : "Verdana",
									"patching_rect" : [ 52.0, 74.0, 35.0, 28.0 ],
									"fontsize" : 9.0,
									"numinlets" : 2,
									"numoutlets" : 2,
									"outlettype" : [ "bang", "" ]
								}

							}
, 							{
								"box" : 								{
									"maxclass" : "newobj",
									"text" : "key",
									"id" : "obj-6",
									"fontname" : "Verdana",
									"patching_rect" : [ 52.0, 46.0, 40.0, 17.0 ],
									"fontsize" : 9.0,
									"numinlets" : 0,
									"numoutlets" : 4,
									"outlettype" : [ "int", "int", "int", "int" ]
								}

							}
 ],
						"lines" : [ 							{
								"patchline" : 								{
									"source" : [ "obj-2", 0 ],
									"destination" : [ "obj-1", 0 ],
									"hidden" : 0,
									"midpoints" : [  ]
								}

							}
, 							{
								"patchline" : 								{
									"source" : [ "obj-3", 0 ],
									"destination" : [ "obj-4", 0 ],
									"hidden" : 0,
									"midpoints" : [  ]
								}

							}
, 							{
								"patchline" : 								{
									"source" : [ "obj-1", 0 ],
									"destination" : [ "obj-3", 0 ],
									"hidden" : 0,
									"midpoints" : [  ]
								}

							}
, 							{
								"patchline" : 								{
									"source" : [ "obj-5", 0 ],
									"destination" : [ "obj-3", 0 ],
									"hidden" : 0,
									"midpoints" : [  ]
								}

							}
, 							{
								"patchline" : 								{
									"source" : [ "obj-6", 0 ],
									"destination" : [ "obj-5", 0 ],
									"hidden" : 0,
									"midpoints" : [  ]
								}

							}
 ]
					}
,
					"saved_object_attributes" : 					{
						"fontname" : "Verdana",
						"default_fontsize" : 10.0,
						"globalpatchername" : "",
						"fontface" : 0,
						"fontsize" : 10.0,
						"default_fontface" : 0,
						"default_fontname" : "Verdana"
					}

				}

			}
, 			{
				"box" : 				{
					"maxclass" : "toggle",
					"id" : "obj-44",
					"patching_rect" : [ 103.0, 297.0, 20.0, 20.0 ],
					"numinlets" : 1,
					"numoutlets" : 1,
					"outlettype" : [ "int" ]
				}

			}
, 			{
				"box" : 				{
					"maxclass" : "message",
					"text" : "loop $1",
					"id" : "obj-40",
					"fontname" : "Arial",
					"patching_rect" : [ 103.0, 321.0, 49.0, 18.0 ],
					"fontsize" : 11.595187,
					"numinlets" : 2,
					"numoutlets" : 1,
					"outlettype" : [ "" ]
				}

			}
, 			{
				"box" : 				{
					"maxclass" : "meter~",
					"id" : "obj-39",
					"patching_rect" : [ 157.0, 521.0, 18.0, 151.0 ],
					"numinlets" : 1,
					"numoutlets" : 1,
					"outlettype" : [ "float" ]
				}

			}
, 			{
				"box" : 				{
					"maxclass" : "meter~",
					"id" : "obj-38",
					"patching_rect" : [ 137.0, 521.0, 18.0, 151.0 ],
					"numinlets" : 1,
					"numoutlets" : 1,
					"outlettype" : [ "float" ]
				}

			}
, 			{
				"box" : 				{
					"maxclass" : "gain~",
					"id" : "obj-37",
					"patching_rect" : [ 219.0, 523.0, 30.0, 149.0 ],
					"numinlets" : 2,
					"numoutlets" : 2,
					"outlettype" : [ "signal", "int" ]
				}

			}
, 			{
				"box" : 				{
					"maxclass" : "toggle",
					"id" : "obj-34",
					"patching_rect" : [ 103.0, 259.0, 20.0, 20.0 ],
					"numinlets" : 1,
					"numoutlets" : 1,
					"outlettype" : [ "int" ]
				}

			}
, 			{
				"box" : 				{
					"maxclass" : "gain~",
					"id" : "obj-4",
					"patching_rect" : [ 186.0, 523.0, 30.0, 149.0 ],
					"numinlets" : 2,
					"numoutlets" : 2,
					"outlettype" : [ "signal", "int" ]
				}

			}
, 			{
				"box" : 				{
					"maxclass" : "button",
					"id" : "obj-6",
					"patching_rect" : [ 186.0, 251.0, 26.0, 26.0 ],
					"numinlets" : 1,
					"numoutlets" : 1,
					"outlettype" : [ "bang" ]
				}

			}
, 			{
				"box" : 				{
					"maxclass" : "flonum",
					"id" : "obj-13",
					"fontname" : "Arial",
					"patching_rect" : [ 356.0, 250.0, 49.0, 20.0 ],
					"fontsize" : 11.595187,
					"numinlets" : 1,
					"numoutlets" : 2,
					"outlettype" : [ "float", "bang" ]
				}

			}
, 			{
				"box" : 				{
					"maxclass" : "message",
					"text" : "thresh $1",
					"id" : "obj-5",
					"fontname" : "Arial",
					"patching_rect" : [ 356.0, 273.0, 59.0, 18.0 ],
					"fontsize" : 11.595187,
					"numinlets" : 2,
					"numoutlets" : 1,
					"outlettype" : [ "" ]
				}

			}
, 			{
				"box" : 				{
					"maxclass" : "newobj",
					"text" : "dac~",
					"id" : "obj-30",
					"fontname" : "Arial",
					"patching_rect" : [ 186.0, 684.0, 41.0, 20.0 ],
					"fontsize" : 11.595187,
					"numinlets" : 2,
					"numoutlets" : 0
				}

			}
, 			{
				"box" : 				{
					"maxclass" : "waveform~",
					"labelbgcolor" : [ 0.866667, 0.866667, 0.866667, 1.0 ],
					"id" : "obj-10",
					"buffername" : "poo",
					"patching_rect" : [ 357.0, 538.0, 312.0, 103.0 ],
					"numinlets" : 5,
					"textcolor" : [  ],
					"bgcolor" : [ 0.494118, 0.705882, 0.917647, 1.0 ],
					"numoutlets" : 6,
					"outlettype" : [ "float", "float", "float", "float", "list", "" ]
				}

			}
, 			{
				"box" : 				{
					"maxclass" : "message",
					"text" : "replace",
					"id" : "obj-14",
					"fontname" : "Arial",
					"patching_rect" : [ 18.0, 134.0, 49.0, 18.0 ],
					"fontsize" : 11.595187,
					"numinlets" : 2,
					"numoutlets" : 1,
					"outlettype" : [ "" ]
				}

			}
, 			{
				"box" : 				{
					"maxclass" : "number~",
					"id" : "obj-15",
					"fontname" : "Arial",
					"mode" : 2,
					"interval" : 250.0,
					"sig" : 0.0,
					"patching_rect" : [ 289.0, 472.0, 87.0, 20.0 ],
					"fontsize" : 11.595187,
					"numinlets" : 2,
					"numoutlets" : 2,
					"outlettype" : [ "signal", "float" ]
				}

			}
, 			{
				"box" : 				{
					"maxclass" : "newobj",
					"text" : "buffer~ foo anton.aif",
					"id" : "obj-21",
					"fontname" : "Arial",
					"patching_rect" : [ 18.0, 160.0, 114.0, 20.0 ],
					"fontsize" : 11.595187,
					"numinlets" : 1,
					"numoutlets" : 2,
					"outlettype" : [ "float", "bang" ]
				}

			}
, 			{
				"box" : 				{
					"maxclass" : "newobj",
					"text" : "vb.stretch~ foo 16384",
					"id" : "obj-22",
					"fontname" : "Arial",
					"patching_rect" : [ 186.0, 426.0, 122.0, 20.0 ],
					"fontsize" : 11.595187,
					"color" : [ 0.909804, 0.74902, 0.278431, 1.0 ],
					"numinlets" : 1,
					"bgcolor" : [ 0.941176, 0.941176, 0.384314, 1.0 ],
					"numoutlets" : 3,
					"outlettype" : [ "signal", "signal", "signal" ]
				}

			}
, 			{
				"box" : 				{
					"maxclass" : "panel",
					"varname" : "autohelp_top_panel",
					"id" : "obj-12",
					"patching_rect" : [ 0.0, 21.0, 463.0, 52.0 ],
					"background" : 1,
					"numinlets" : 1,
					"rounded" : 0,
					"bgcolor" : [ 0.521569, 0.678431, 0.87451, 1.0 ],
					"grad1" : [ 0.88, 0.98, 0.78, 1.0 ],
					"numoutlets" : 0,
					"grad2" : [ 0.9, 0.9, 0.9, 1.0 ]
				}

			}
, 			{
				"box" : 				{
					"maxclass" : "panel",
					"varname" : "autohelp_top_panel[1]",
					"id" : "obj-48",
					"patching_rect" : [ 7.0, 49.0, 540.0, 53.0 ],
					"background" : 1,
					"numinlets" : 1,
					"rounded" : 0,
					"bgcolor" : [ 0.101961, 0.447059, 0.882353, 1.0 ],
					"grad1" : [ 0.88, 0.98, 0.78, 1.0 ],
					"numoutlets" : 0,
					"grad2" : [ 0.9, 0.9, 0.9, 1.0 ]
				}

			}
 ],
		"lines" : [ 			{
				"patchline" : 				{
					"source" : [ "obj-31", 0 ],
					"destination" : [ "obj-22", 0 ],
					"hidden" : 0,
					"midpoints" : [ 112.5, 402.5, 195.5, 402.5 ]
				}

			}
, 			{
				"patchline" : 				{
					"source" : [ "obj-32", 0 ],
					"destination" : [ "obj-22", 0 ],
					"hidden" : 0,
					"midpoints" : [  ]
				}

			}
, 			{
				"patchline" : 				{
					"source" : [ "obj-22", 1 ],
					"destination" : [ "obj-39", 0 ],
					"hidden" : 0,
					"midpoints" : [  ]
				}

			}
, 			{
				"patchline" : 				{
					"source" : [ "obj-22", 0 ],
					"destination" : [ "obj-38", 0 ],
					"hidden" : 0,
					"midpoints" : [  ]
				}

			}
, 			{
				"patchline" : 				{
					"source" : [ "obj-22", 2 ],
					"destination" : [ "obj-15", 0 ],
					"hidden" : 0,
					"midpoints" : [  ]
				}

			}
, 			{
				"patchline" : 				{
					"source" : [ "obj-6", 0 ],
					"destination" : [ "obj-22", 0 ],
					"hidden" : 0,
					"midpoints" : [  ]
				}

			}
, 			{
				"patchline" : 				{
					"source" : [ "obj-5", 0 ],
					"destination" : [ "obj-22", 0 ],
					"hidden" : 0,
					"midpoints" : [  ]
				}

			}
, 			{
				"patchline" : 				{
					"source" : [ "obj-34", 0 ],
					"destination" : [ "obj-22", 0 ],
					"hidden" : 0,
					"midpoints" : [ 112.5, 287.0, 195.5, 287.0 ]
				}

			}
, 			{
				"patchline" : 				{
					"source" : [ "obj-40", 0 ],
					"destination" : [ "obj-22", 0 ],
					"hidden" : 0,
					"midpoints" : [ 112.5, 346.0, 195.5, 346.0 ]
				}

			}
, 			{
				"patchline" : 				{
					"source" : [ "obj-46", 0 ],
					"destination" : [ "obj-22", 0 ],
					"hidden" : 0,
					"midpoints" : [  ]
				}

			}
, 			{
				"patchline" : 				{
					"source" : [ "obj-56", 0 ],
					"destination" : [ "obj-22", 0 ],
					"hidden" : 0,
					"midpoints" : [  ]
				}

			}
, 			{
				"patchline" : 				{
					"source" : [ "obj-68", 0 ],
					"destination" : [ "obj-22", 0 ],
					"hidden" : 0,
					"midpoints" : [  ]
				}

			}
, 			{
				"patchline" : 				{
					"source" : [ "obj-18", 0 ],
					"destination" : [ "obj-22", 0 ],
					"hidden" : 0,
					"midpoints" : [ 536.5, 416.5, 195.5, 416.5 ]
				}

			}
, 			{
				"patchline" : 				{
					"source" : [ "obj-93", 0 ],
					"destination" : [ "obj-22", 0 ],
					"hidden" : 0,
					"midpoints" : [ 371.5, 416.0, 195.5, 416.0 ]
				}

			}
, 			{
				"patchline" : 				{
					"source" : [ "obj-94", 0 ],
					"destination" : [ "obj-22", 0 ],
					"hidden" : 0,
					"midpoints" : [ 418.5, 416.0, 195.5, 416.0 ]
				}

			}
, 			{
				"patchline" : 				{
					"source" : [ "obj-22", 0 ],
					"destination" : [ "obj-4", 0 ],
					"hidden" : 0,
					"midpoints" : [  ]
				}

			}
, 			{
				"patchline" : 				{
					"source" : [ "obj-22", 1 ],
					"destination" : [ "obj-37", 0 ],
					"hidden" : 0,
					"midpoints" : [  ]
				}

			}
, 			{
				"patchline" : 				{
					"source" : [ "obj-93", 0 ],
					"destination" : [ "obj-10", 0 ],
					"hidden" : 1,
					"midpoints" : [  ]
				}

			}
, 			{
				"patchline" : 				{
					"source" : [ "obj-94", 0 ],
					"destination" : [ "obj-10", 0 ],
					"hidden" : 1,
					"midpoints" : [  ]
				}

			}
, 			{
				"patchline" : 				{
					"source" : [ "obj-14", 0 ],
					"destination" : [ "obj-21", 0 ],
					"hidden" : 0,
					"midpoints" : [  ]
				}

			}
, 			{
				"patchline" : 				{
					"source" : [ "obj-37", 1 ],
					"destination" : [ "obj-69", 0 ],
					"hidden" : 0,
					"midpoints" : [  ]
				}

			}
, 			{
				"patchline" : 				{
					"source" : [ "obj-15", 1 ],
					"destination" : [ "obj-67", 0 ],
					"hidden" : 0,
					"midpoints" : [  ]
				}

			}
, 			{
				"patchline" : 				{
					"source" : [ "obj-67", 0 ],
					"destination" : [ "obj-10", 0 ],
					"hidden" : 0,
					"midpoints" : [  ]
				}

			}
, 			{
				"patchline" : 				{
					"source" : [ "obj-47", 0 ],
					"destination" : [ "obj-32", 0 ],
					"hidden" : 0,
					"midpoints" : [  ]
				}

			}
, 			{
				"patchline" : 				{
					"source" : [ "obj-23", 0 ],
					"destination" : [ "obj-31", 0 ],
					"hidden" : 0,
					"midpoints" : [  ]
				}

			}
, 			{
				"patchline" : 				{
					"source" : [ "obj-51", 0 ],
					"destination" : [ "obj-34", 0 ],
					"hidden" : 0,
					"midpoints" : [  ]
				}

			}
, 			{
				"patchline" : 				{
					"source" : [ "obj-42", 0 ],
					"destination" : [ "obj-30", 0 ],
					"hidden" : 1,
					"midpoints" : [  ]
				}

			}
, 			{
				"patchline" : 				{
					"source" : [ "obj-45", 0 ],
					"destination" : [ "obj-42", 0 ],
					"hidden" : 1,
					"midpoints" : [  ]
				}

			}
, 			{
				"patchline" : 				{
					"source" : [ "obj-42", 0 ],
					"destination" : [ "obj-45", 0 ],
					"hidden" : 1,
					"midpoints" : [  ]
				}

			}
, 			{
				"patchline" : 				{
					"source" : [ "obj-44", 0 ],
					"destination" : [ "obj-40", 0 ],
					"hidden" : 0,
					"midpoints" : [  ]
				}

			}
, 			{
				"patchline" : 				{
					"source" : [ "obj-37", 0 ],
					"destination" : [ "obj-30", 1 ],
					"hidden" : 0,
					"midpoints" : [  ]
				}

			}
, 			{
				"patchline" : 				{
					"source" : [ "obj-4", 1 ],
					"destination" : [ "obj-37", 0 ],
					"hidden" : 1,
					"midpoints" : [  ]
				}

			}
, 			{
				"patchline" : 				{
					"source" : [ "obj-13", 0 ],
					"destination" : [ "obj-5", 0 ],
					"hidden" : 0,
					"midpoints" : [  ]
				}

			}
, 			{
				"patchline" : 				{
					"source" : [ "obj-4", 0 ],
					"destination" : [ "obj-30", 0 ],
					"hidden" : 0,
					"midpoints" : [  ]
				}

			}
, 			{
				"patchline" : 				{
					"source" : [ "obj-3", 0 ],
					"destination" : [ "obj-46", 0 ],
					"hidden" : 0,
					"midpoints" : [  ]
				}

			}
, 			{
				"patchline" : 				{
					"source" : [ "obj-8", 0 ],
					"destination" : [ "obj-56", 0 ],
					"hidden" : 0,
					"midpoints" : [  ]
				}

			}
, 			{
				"patchline" : 				{
					"source" : [ "obj-70", 0 ],
					"destination" : [ "obj-68", 0 ],
					"hidden" : 0,
					"midpoints" : [  ]
				}

			}
, 			{
				"patchline" : 				{
					"source" : [ "obj-78", 0 ],
					"destination" : [ "obj-75", 0 ],
					"hidden" : 0,
					"midpoints" : [  ]
				}

			}
, 			{
				"patchline" : 				{
					"source" : [ "obj-75", 0 ],
					"destination" : [ "obj-79", 0 ],
					"hidden" : 0,
					"midpoints" : [  ]
				}

			}
, 			{
				"patchline" : 				{
					"source" : [ "obj-79", 0 ],
					"destination" : [ "obj-81", 0 ],
					"hidden" : 0,
					"midpoints" : [  ]
				}

			}
, 			{
				"patchline" : 				{
					"source" : [ "obj-82", 0 ],
					"destination" : [ "obj-78", 0 ],
					"hidden" : 1,
					"midpoints" : [  ]
				}

			}
, 			{
				"patchline" : 				{
					"source" : [ "obj-83", 0 ],
					"destination" : [ "obj-4", 0 ],
					"hidden" : 1,
					"midpoints" : [  ]
				}

			}
, 			{
				"patchline" : 				{
					"source" : [ "obj-49", 0 ],
					"destination" : [ "obj-8", 0 ],
					"hidden" : 1,
					"midpoints" : [  ]
				}

			}
 ]
	}

}
